<?xml version="1.0" encoding="UTF-8" standalone="no"?>
<!-- Created with Inkscape (http://www.inkscape.org/) -->

<svg
   xmlns:dc="http://purl.org/dc/elements/1.1/"
   xmlns:cc="http://creativecommons.org/ns#"
   xmlns:rdf="http://www.w3.org/1999/02/22-rdf-syntax-ns#"
   xmlns:svg="http://www.w3.org/2000/svg"
   xmlns="http://www.w3.org/2000/svg"
   xmlns:sodipodi="http://sodipodi.sourceforge.net/DTD/sodipodi-0.dtd"
   xmlns:inkscape="http://www.inkscape.org/namespaces/inkscape"
   width="744.09448819"
   height="1052.3622047"
   id="svg2"
   version="1.1"
   inkscape:version="0.48.5 r10040"
   sodipodi:docname="icon.svg">
  <defs
     id="defs4" />
  <sodipodi:namedview
     id="base"
     pagecolor="#ffffff"
     bordercolor="#666666"
     borderopacity="1.0"
     inkscape:pageopacity="0.0"
     inkscape:pageshadow="2"
     inkscape:zoom="0.75548187"
     inkscape:cx="34.225682"
     inkscape:cy="495.90595"
     inkscape:document-units="px"
     inkscape:current-layer="layer1"
     showgrid="false"
     inkscape:window-width="960"
     inkscape:window-height="1028"
     inkscape:window-x="681"
     inkscape:window-y="139"
     inkscape:window-maximized="0"
     inkscape:snap-center="true" />
  <metadata
     id="metadata7">
    <rdf:RDF>
      <cc:Work
         rdf:about="">
        <dc:format>image/svg+xml</dc:format>
        <dc:type
           rdf:resource="http://purl.org/dc/dcmitype/StillImage" />
        <dc:title></dc:title>
      </cc:Work>
    </rdf:RDF>
  </metadata>
  <g
     inkscape:label="Layer 1"
     inkscape:groupmode="layer"
     id="layer1">
    <rect
       style="fill:#ffffff;fill-opacity:1;fill-rule:nonzero;stroke:none"
       id="rect3180"
       width="290"
       height="290"
       x="-4.6798396"
       y="136.19966"
       inkscape:export-filename="/home/ibaton/projects/Habit/media/hi-res-icon.png"
       inkscape:export-xdpi="158.89655"
       inkscape:export-ydpi="158.89655" />
    <g
       id="g3004"
       transform="translate(1.7487331,-4.7745272)"
       inkscape:export-filename="/home/ibaton/projects/Habit/media/hi-res-icon.png"
       inkscape:export-xdpi="158.89655"
       inkscape:export-ydpi="158.89655">
      <g
         id="g3006"
         inkscape:export-filename="/home/ibaton/projects/Habit/media/g3877.png"
         inkscape:export-xdpi="167.37064"
         inkscape:export-ydpi="167.37064">
        <path
           sodipodi:type="star"
           style="fill:#79bb52;fill-opacity:1;stroke:none"
           id="path3008"
           sodipodi:sides="5"
           sodipodi:cx="138.57143"
           sodipodi:cy="295.21933"
           sodipodi:r1="140.1821"
           sodipodi:r2="121.37888"
           sodipodi:arg1="-1.5707963"
           sodipodi:arg2="-0.94247777"
           inkscape:flatsided="false"
           inkscape:rounded="0.22"
           inkscape:randomized="0"
           d="m 138.57143,155.03723 c 18.21192,0 56.61096,31.27982 71.34472,41.98452 14.73375,10.7047 56.34858,37.55837 61.97638,54.87893 5.62779,17.32057 -12.25513,63.50623 -17.88293,80.82679 -5.62779,17.32056 -18.30745,65.19686 -33.04121,75.90156 -14.73375,10.7047 -64.18505,7.96918 -82.39697,7.96918 -18.21192,0 -67.663215,2.73552 -82.396967,-7.96918 C 41.440702,397.92433 28.761039,350.04803 23.133247,332.72746 17.505455,315.4069 -0.37746356,269.22124 5.2503294,251.90068 10.878122,234.58011 52.492959,207.72645 67.226711,197.02175 81.960464,186.31705 120.35951,155.03723 138.57143,155.03723 z"
           inkscape:transform-center-y="-13.386199" />
        <path
           transform="matrix(0.90551025,0,0,0.90551025,13.09358,28.286489)"
           inkscape:transform-center-y="-12.12134"
           d="m 138.57143,155.03723 c 18.21192,0 56.61096,31.27982 71.34472,41.98452 14.73375,10.7047 56.34858,37.55837 61.97638,54.87893 5.62779,17.32057 -12.25513,63.50623 -17.88293,80.82679 -5.62779,17.32056 -18.30745,65.19686 -33.04121,75.90156 -14.73375,10.7047 -64.18505,7.96918 -82.39697,7.96918 -18.21192,0 -67.663215,2.73552 -82.396967,-7.96918 C 41.440702,397.92433 28.761039,350.04803 23.133247,332.72746 17.505455,315.4069 -0.37746356,269.22124 5.2503294,251.90068 10.878122,234.58011 52.492959,207.72645 67.226711,197.02175 81.960464,186.31705 120.35951,155.03723 138.57143,155.03723 z"
           inkscape:randomized="0"
           inkscape:rounded="0.22"
           inkscape:flatsided="false"
           sodipodi:arg2="-0.94247777"
           sodipodi:arg1="-1.5707963"
           sodipodi:r2="121.37888"
           sodipodi:r1="140.1821"
           sodipodi:cy="295.21933"
           sodipodi:cx="138.57143"
           sodipodi:sides="5"
           id="path3010"
           style="fill:none;stroke:#ffffff;stroke-width:7.29533434;stroke-miterlimit:4;stroke-opacity:1;stroke-dasharray:none"
           sodipodi:type="star" />
      </g>
      <g
         id="g3012"
         inkscape:export-xdpi="167.37064"
         inkscape:export-ydpi="167.37064">
        <g
           transform="matrix(1.2290379,0,0,2.092033,-35.552683,-444.04821)"
           id="g3014">
          <path
             style="fill:#ffffff;fill-opacity:1;stroke:none"
             d="m 130.5,298.15625 c 0,0 -2.03966,40.74594 -4.3125,69.1875 C 123.91466,395.78531 105.5,406.625 105.5,406.625 l 33.0625,-0.96875 33.09375,0.96875 c 0,0 -18.44591,-10.83969 -20.71875,-39.28125 -2.27284,-28.44156 -4.28125,-69.1875 -4.28125,-69.1875 -2.86458,0 -5.58185,0 -8.37278,0 -2.59449,0 -7.78347,0 -7.78347,0 z"
             transform="matrix(1,0,0,1.0477448,3.1024598,-19.414091)"
             id="path3016"
             inkscape:connector-curvature="0"
             sodipodi:nodetypes="cscccscac" />
        </g>
      </g>
    </g>
    <rect
       style="fill:#000000;fill-opacity:1;stroke:none"
       id="rect3036"
       width="312.65106"
       height="297.2572"
       x="-3.613166e-06"
       y="470.19016" />
    <path
       style="fill:#ffffff;fill-opacity:1;stroke:none"
       d="m 154.92157,485.07309 c -18.21192,0 -56.609999,31.26405 -71.343749,41.96875 -14.73375,10.7047 -56.340957,37.55444 -61.96875,54.875 -5.627793,17.32056 12.247208,63.52319 17.875,80.84375 5.627792,17.32056 18.2975,65.20155 33.03125,75.90625 14.73375,10.7047 64.194329,7.96875 82.406249,7.96875 18.21192,0 67.6725,2.73595 82.40625,-7.96875 14.73375,-10.7047 27.40346,-58.58569 33.03125,-75.90625 5.62779,-17.32056 23.50279,-63.52319 17.875,-80.84375 -5.62779,-17.32056 -47.235,-44.1703 -61.96875,-54.875 -14.73375,-10.7047 -53.13183,-41.96875 -71.34375,-41.96875 z m 0,10.3125 c 10.13657,0 22.74037,7.54442 35.3125,15.9375 12.57214,8.39309 24.713,17.96935 31.25,22.71875 6.53698,4.7494 19.3827,13.3243 31.25,22.6875 11.8673,9.3632 22.93013,19.01582 26.0625,28.65625 3.13236,9.64044 -0.15271,23.98084 -4.25,38.53125 -4.0973,14.55042 -9.47184,29.0028 -11.96875,36.6875 -2.49691,7.68469 -6.66851,22.57014 -11.90625,36.75 -5.23773,14.17987 -10.98684,27.69813 -19.1875,33.65625 -8.20064,5.95812 -22.8331,7.27543 -37.9375,7.875 -15.1044,0.59956 -30.54483,-0.0312 -38.625,-0.0312 -8.08016,0 -23.48935,0.63086 -38.59375,0.0312 -15.1044,-0.59957 -29.768099,-1.91688 -37.968749,-7.875 -8.20065,-5.95812 -13.94976,-19.47638 -19.1875,-33.65625 -5.237736,-14.17986 -9.440592,-29.06531 -11.9375,-36.75 -2.496908,-7.6847 -7.840202,-22.13708 -11.9375,-36.6875 -4.097297,-14.55041 -7.382369,-28.89081 -4.25,-38.53125 3.132369,-9.64044 14.195196,-19.29305 26.0625,-28.65625 11.8673,-9.3632 24.74426,-17.9381 31.28125,-22.6875 6.53699,-4.7494 18.646619,-14.32566 31.218749,-22.71875 12.57214,-8.39308 25.17594,-15.9375 35.3125,-15.9375 z m -10.09375,9.375 c -6.34345,2.68373 -14.06733,7.07962 -21.53125,12.0625 -12.27139,8.19231 -24.226679,17.61869 -31.031249,22.5625 -6.80457,4.94382 -19.44783,13.39202 -31.03125,22.53125 -11.583424,9.13922 -21.942594,19.48774 -23.90625,25.53125 -1.963654,6.0435 0.313215,20.4539 4.3125,34.65625 3.999286,14.20235 9.275885,28.4695 11.875,36.46875 2.59912,7.99926 6.73131,22.65933 11.84375,36.5 5.11244,13.84067 11.76534,26.85865 16.90625,30.59375 5.14092,3.73509 19.569419,6.00852 34.312499,6.59375 0.34361,0.0136 0.68725,0.0189 1.03125,0.0312 6.393,-9.3051 19.96969,-34.3464 22.09375,-81.75 2.51872,-56.21124 4.69983,-130.95755 5.125,-145.78125 z m 20.21875,0 c 0.41903,14.8237 2.54379,89.57001 5.0625,145.78125 2.12407,47.4036 15.75261,72.4449 22.15625,81.75 0.34404,-0.0124 0.68764,-0.0176 1.03125,-0.0312 14.74308,-0.58523 29.14033,-2.85866 34.28125,-6.59375 5.14092,-3.7351 11.79381,-16.75309 16.90625,-30.59375 5.11244,-13.84066 9.21339,-28.50075 11.8125,-36.5 2.59913,-7.99925 7.90696,-22.2664 11.90625,-36.46875 3.99928,-14.20235 6.27615,-28.61274 4.3125,-34.65625 -1.96366,-6.04351 -12.29157,-16.39203 -23.875,-25.53125 -11.58342,-9.13923 -24.22667,-17.58743 -31.03125,-22.53125 -6.80457,-4.94381 -18.75986,-14.37019 -31.03125,-22.5625 -7.45647,-4.9779 -15.18232,-9.37802 -21.53125,-12.0625 z"
       id="path3831"
       inkscape:connector-curvature="0"
       inkscape:export-filename="/home/ibaton/projects/Habit/media/notification_icon.png"
       inkscape:export-xdpi="167.41"
       inkscape:export-ydpi="167.41" />
  </g>
</svg>
